inDegrees=no
num_controls=7
num_derivatives=13
num_iterations=51
num_multipliers=7
num_parameters=0
num_slacks=7
num_states=26
objective=0.496272
objective_accelerations=0.010425
objective_balance=0.003102
objective_effort=0.018675
objective_height=0.362723
objective_ligament=0.101346
solver_duration=640.789935
status=Solve_Succeeded
success=true
DataType=double
version=3
OpenSimVersion=4.5
endheader
time	/jointset/ground_pelvis/pelvis_tilt/value	/jointset/ground_pelvis/pelvis_tx/value	/jointset/ground_pelvis/pelvis_ty/value	/jointset/hip_l/hip_flexion_l/value	/jointset/hip_l/hip_adduction_l/value	/jointset/hip_l/hip_rotation_l/value	/jointset/back/lumbar_extension/value	/jointset/patellofemoral_l/patellar_flexion_l/value	/jointset/knee_l/knee_flexion_l/value	/jointset/knee_l/knee_adduction_l/value	/jointset/knee_l/knee_rotation_l/value	/jointset/ankle_l/ankle_angle_l/value	/jointset/subtalar_l/subtalar_angle_l/value	/jointset/ground_pelvis/pelvis_tilt/speed	/jointset/ground_pelvis/pelvis_tx/speed	/jointset/ground_pelvis/pelvis_ty/speed	/jointset/hip_l/hip_flexion_l/speed	/jointset/hip_l/hip_adduction_l/speed	/jointset/hip_l/hip_rotation_l/speed	/jointset/back/lumbar_extension/speed	/jointset/patellofemoral_l/patellar_flexion_l/speed	/jointset/knee_l/knee_flexion_l/speed	/jointset/knee_l/knee_adduction_l/speed	/jointset/knee_l/knee_rotation_l/speed	/jointset/ankle_l/ankle_angle_l/speed	/jointset/subtalar_l/subtalar_angle_l/speed	/forceset/tau_hip_flexion_l	/forceset/tau_hip_adduction_l	/forceset/tau_hip_rotation_l	/forceset/tau_knee_flexion_l	/forceset/tau_ankle_angle_l	/forceset/tau_subtalar_angle_l	/forceset/tau_lumbar_extension	lambda_cid13_p0	lambda_cid13_p1	lambda_cid13_p2	lambda_cid13_p3	lambda_cid13_p4	lambda_cid13_p5	lambda_cid14_p0	/jointset/ground_pelvis/pelvis_tilt/accel	/jointset/ground_pelvis/pelvis_tx/accel	/jointset/ground_pelvis/pelvis_ty/accel	/jointset/hip_l/hip_flexion_l/accel	/jointset/hip_l/hip_adduction_l/accel	/jointset/hip_l/hip_rotation_l/accel	/jointset/back/lumbar_extension/accel	/jointset/patellofemoral_l/patellar_flexion_l/accel	/jointset/knee_l/knee_flexion_l/accel	/jointset/knee_l/knee_adduction_l/accel	/jointset/knee_l/knee_rotation_l/accel	/jointset/ankle_l/ankle_angle_l/accel	/jointset/subtalar_l/subtalar_angle_l/accel	gamma_cid13_p0	gamma_cid13_p1	gamma_cid13_p2	gamma_cid13_p3	gamma_cid13_p4	gamma_cid13_p5	gamma_cid14_p0
0.5	-0.04693729753892333	-0.01474658258273248	0.8945827197532852	0.5350268596091345	-0.2663122103789504	-0.2663081902003377	-0.7654582436429348	0.4336563943058294	0.4336563943058565	-0.05552987113325841	-0.1744962406284684	-0.00115685025942372	0.03032960018407112	-0.08080910086646513	-0.1144810130493415	-0.08092513972989596	0.5084243694157146	-0.05526389753149653	0.1439214543349508	-0.8322562281117785	0.4487649134212581	0.4487649134212208	0.009618270445140725	-0.0003174272770019333	0.02677937236706359	-0.04970174533428091	-0.2412118221427052	0.1051205811650472	-0.007858609652851952	-0.08397385326078538	0.07157376778079491	-0.00901472406745053	0.3084363792707329	-24.37811998766419	5.065436691364057	2.2997323171042	1.634198204728064	-713.8166916683624	-27.68666371890514	-23.66639229904606	0.07193160288860294	0.3554780399475619	0.08217831158659654	-0.9145238642597678	-0.03693715326308578	-0.1206674426054765	1.544927015544424	-0.629154250525181	-0.629154250525182	-0.3326727561450645	-0.002077955024449015	0.1459831282947389	0.01556895259584718	-5.655273327047737e-09	1.758425230051135e-08	2.44540911677938e-08	3.421782211779765e-10	9.115569712098242e-09	-2.120137043175184e-10	-2.659650897185326e-09
0.51	-0.04774176962700803	-0.01587359407162248	0.8937777048684766	0.5400649981845882	-0.2668665703381686	-0.2648750207376443	-0.7737026735709168	0.4381120568285906	0.4381120568286314	-0.05545022091243387	-0.1744993736823575	-0.0008818940174807013	0.02983343995999194	-0.08006773721789523	-0.1109176543942325	-0.08006193548834563	0.4991418747123954	-0.05559032717411937	0.1426908415654958	-0.8165535922151661	0.4423054182784162	0.4423054182784349	0.006335529988986371	-0.0003080028940771678	0.0281992662848498	-0.04951634289419996	-0.2459154720627725	0.1065815903325108	-0.007879757347482034	-0.08239959572119743	0.06946912481063831	-0.008401416375711875	0.3129840787624554	-25.10241033795611	4.923786062498038	2.324724371755109	1.805381409473403	-715.2595327222218	-27.45036997118357	-23.64262072768366	0.07787397956086502	0.3573093768188581	0.0907787857424472	-0.9443344429322055	-0.02783641521264813	-0.1274996944929311	1.594356666285307	-0.663672564723458	-0.6636725647150754	-0.3225062265043637	0.002633465304410927	0.1381010425081754	0.02211357735372536	-5.571913713944319e-09	2.016665262318298e-08	2.40304102956905e-08	1.439538881363098e-10	1.102485939530143e-08	1.201814761979337e-10	-2.442408276820654e-09
0.52	-0.04853830103185428	-0.01696486305425619	0.8929817994871442	0.5450084673790987	-0.2674236627028948	-0.2634548057027098	-0.7817877921820203	0.4425012593162069	0.4425012593162618	-0.055402684403425	-0.1745023763263376	-0.000593117132560806	0.02933955129784214	-0.07922096422056625	-0.1073325117980833	-0.07910323903470069	0.4894904932264899	-0.05581037863480989	0.1413305687809547	-0.8003939647359349	0.4354729063931819	0.4354729063932565	0.003195528086683034	-0.0002913452970129608	0.02954350096214616	-0.04924743294854191	-0.2506191219828497	0.108042599500031	-0.007900905042254774	-0.08082533818161625	0.06736448184049741	-0.007788108683906936	0.3175317782541541	-25.83044992749856	4.782568726039733	2.349902300916517	1.963739771200524	-716.7684841555294	-27.2238049778662	-23.61690869859139	0.09301347263982027	0.3598348281561368	0.1012767540055811	-0.9883012207771384	-0.01566151687666834	-0.1465994456227334	1.636325332067917	-0.7037575990037042	-0.7037575990037068	-0.3041250453749496	-0.0006313121965494452	0.1308512801974028	0.03227045371145641	-5.473401106992059e-09	2.242062361130033e-08	2.350982784155434e-08	-3.845893653406161e-11	1.265488621923461e-08	3.905076420913165e-10	-2.231126424027488e-09
0.53	-0.0493258484347276	-0.01802020513389965	0.8921959448313553	0.5498536776594806	-0.2679824209111692	-0.2620487745680631	-0.7897091422149866	0.4468203452737785	0.4468203452738392	-0.05538581951003183	-0.1745051196057462	-0.0002912852223863532	0.02884876837871852	-0.07827053567721028	-0.1037354061741623	-0.07805264364316275	0.4794956147153143	-0.05592409432260298	0.1398578200312752	-0.7838127579877736	0.4282859338186932	0.4282859338186983	0.0002005889951838535	-0.0002530460622283309	0.03080789365270726	-0.04889669628250242	-0.2550355547339544	0.1093954232419246	-0.007916849852026146	-0.07940391211660314	0.06536190205577989	-0.007214820428871126	0.321796034982483	-26.51958939695473	4.653560571870917	2.371260592621236	2.146119305504449	-718.1168845404196	-26.99807257718659	-23.58935655362496	0.09875278206716179	0.3597230976015065	0.109210906095484	-1.013475016174212	-0.006657600292206192	-0.1502896466490825	1.678510925779948	-0.7349193579937817	-0.7349193580042301	-0.2937017613813265	0.006703576208860033	0.1219852061989048	0.03833706711308704	-5.243992022191432e-09	2.387076224615658e-08	2.254245735499234e-08	-3.347815640880485e-10	1.421258704075671e-08	6.619130437620797e-10	-2.037023401826615e-09
